<?xml version="1.0" encoding="utf-8"?>
<!-- Generator: Adobe Illustrator 15.0.2, SVG Export Plug-In . SVG Version: 6.00 Build 0)  -->
<!DOCTYPE svg PUBLIC "-//W3C//DTD SVG 1.1//EN" "http://www.w3.org/Graphics/SVG/1.1/DTD/svg11.dtd">
<svg version="1.1" id="Layer_1" xmlns="http://www.w3.org/2000/svg" xmlns:xlink="http://www.w3.org/1999/xlink" x="0px" y="0px"
	 width="128px" height="128px" viewBox="0 0 128 128" enable-background="new 0 0 128 128" xml:space="preserve">
<g>
	<path fill="#FFFFFF" d="M33.17,83.5h11.829v-23h12v23h11.828l-17.828,17.828L33.17,83.5z M58,82.5v-9h11c7.373,0,10-4.649,10-9
		c0-3.259-1.25-7-11-7h-7v-7c-0.001-1.793-2.957-7-12-7c-4.528,0-7.353,1.973-8.925,3.627C38.149,49.154,37,51.91,37,54.5v7h-7
		c-2.112,0-4.187,0.633-5.693,1.738C23.254,64.01,22,65.376,22,67.5c0.001,3.897,3.092,6,6,6h16v9H28c-8.55,0-14.999-6.448-15-15
		c0-4.363,1.858-8.287,5.233-11.048c2.665-2.18,6.108-3.522,9.848-3.865c0.388-4.526,2.156-8.668,5.075-11.821
		c3.795-4.099,9.273-6.266,15.842-6.266c13.106,0,19.688,7.66,20.822,14.04C81.565,49.057,88,54.679,88,64.5
		c0,10.767-7.636,18-19,18H58z"/>
	<path fill="#1664C0" d="M86,64.5c0,10-7,16-17,16h-9v-5h9c8,0,12-5,12-11c0-6.531-5-9-13-9h-5v-5c-0.001-3-4.001-9-14-9
		c-9,0-14.001,7-14,13v5h-5c-5.001,0-10.001,3-10,8s3.999,8,8,8h14v5H28c-7,0-12.999-5-13-13s7-13,15-13
		c-0.001-9,5.999-18,18.999-18S68,44.5,68,50.5C77,50.5,86,53.5,86,64.5z M54.999,62.5h-8v23h-9l13,13l13-13h-9V62.5z"/>
	<path d="M94,64.855c0-5,3-9,6-12s4-4,4-6c0-3-3-4-6-4s-5,2-7,4l-6-6c3-3,7-6,13-6c10,0,15,6,15,12c0,5-3,7-6,10s-4,4-4,8H94z
		 M98.492,84.5c-2.064,0-3.78-0.685-5.147-2.053c-1.368-1.367-2.053-3.131-2.053-5.291s0.685-3.9,2.053-5.221
		c1.367-1.319,3.083-1.98,5.147-1.98c2.063,0,3.78,0.661,5.148,1.98c1.368,1.32,2.052,3.061,2.052,5.221s-0.684,3.924-2.052,5.291
		C102.272,83.815,100.556,84.5,98.492,84.5z"/>
</g>
</svg>
